
<svg
    xmlns="http://www.w3.org/2000/svg"
    width="920"
    height="1060"
    viewBox="0 0 920 1060"
>

<style>
    .mono {
        font-family: JetBrains Mono, Fira Code, Consolas, monospace;
    }

    .title {
        font-size: 20px;
        font-weight: 700;
        fill: #f0f6fc;
    }

    .prompt {
        font-size: 17px;
        font-weight: 700;
        fill: #1793d1;
    }

    .command {
        font-size: 17px;
        fill: #f0f6fc;
    }

    .text {
        font-size: 16px;
        fill: #c9d1d9;
    }

    .muted {
        font-size: 14px;
        fill: #8b949e;
    }

    .metric {
        font-size: 16px;
        font-weight: 700;
        fill: #3fb950;
    }

    .logo {
        font-size: 13px;
        font-weight: 500;
        fill: #1793d1;
        white-space: pre;
    }
</style>

<rect width="920" height="1060" rx="16" fill="#0d1117"/>
<rect
    x="14"
    y="14"
    width="892"
    height="1032"
    rx="14"
    fill="#111827"
    stroke="#30363d"
/>

<rect
    x="14"
    y="14"
    width="892"
    height="44"
    rx="14"
    fill="#161b22"
/>

<circle cx="42" cy="36" r="7" fill="#ff5f56"/>
<circle cx="65" cy="36" r="7" fill="#ffbd2e"/>
<circle cx="88" cy="36" r="7" fill="#27c93f"/>

<text
    x="460.0"
    y="42"
    text-anchor="middle"
    class="mono muted"
>
    zhixe@arch: ~
</text>

<g transform="translate(25 78) scale(1.35)">

<text
    x="0"
    y="0"
    class="mono logo"
    xml:space="preserve"
>&#160;&#160;&#160;&#160;&#160;&#160;&#160;&#160;&#160;&#160;&#160;&#160;&#160;&#160;&#160;&#160;&#160;&#160;&#160;-`</text>

<text
    x="0"
    y="16"
    class="mono logo"
    xml:space="preserve"
>&#160;&#160;&#160;&#160;&#160;&#160;&#160;&#160;&#160;&#160;&#160;&#160;&#160;&#160;&#160;&#160;&#160;&#160;.o+`</text>

<text
    x="0"
    y="32"
    class="mono logo"
    xml:space="preserve"
>&#160;&#160;&#160;&#160;&#160;&#160;&#160;&#160;&#160;&#160;&#160;&#160;&#160;&#160;&#160;&#160;&#160;`ooo/</text>

<text
    x="0"
    y="48"
    class="mono logo"
    xml:space="preserve"
>&#160;&#160;&#160;&#160;&#160;&#160;&#160;&#160;&#160;&#160;&#160;&#160;&#160;&#160;&#160;&#160;`+oooo:</text>

<text
    x="0"
    y="64"
    class="mono logo"
    xml:space="preserve"
>&#160;&#160;&#160;&#160;&#160;&#160;&#160;&#160;&#160;&#160;&#160;&#160;&#160;&#160;&#160;`+oooooo:</text>

<text
    x="0"
    y="80"
    class="mono logo"
    xml:space="preserve"
>&#160;&#160;&#160;&#160;&#160;&#160;&#160;&#160;&#160;&#160;&#160;&#160;&#160;&#160;&#160;-+oooooo+:</text>

<text
    x="0"
    y="96"
    class="mono logo"
    xml:space="preserve"
>&#160;&#160;&#160;&#160;&#160;&#160;&#160;&#160;&#160;&#160;&#160;&#160;&#160;&#160;`/:-:++oooo+:</text>

<text
    x="0"
    y="112"
    class="mono logo"
    xml:space="preserve"
>&#160;&#160;&#160;&#160;&#160;&#160;&#160;&#160;&#160;&#160;&#160;&#160;&#160;`/++++/+++++++:</text>

<text
    x="0"
    y="128"
    class="mono logo"
    xml:space="preserve"
>&#160;&#160;&#160;&#160;&#160;&#160;&#160;&#160;&#160;&#160;&#160;&#160;`/++++++++++++++:</text>

<text
    x="0"
    y="144"
    class="mono logo"
    xml:space="preserve"
>&#160;&#160;&#160;&#160;&#160;&#160;&#160;&#160;&#160;&#160;&#160;`/+++ooooooooooooo/`</text>

<text
    x="0"
    y="160"
    class="mono logo"
    xml:space="preserve"
>&#160;&#160;&#160;&#160;&#160;&#160;&#160;&#160;&#160;&#160;./ooosssso++osssssso+`</text>

<text
    x="0"
    y="176"
    class="mono logo"
    xml:space="preserve"
>&#160;&#160;&#160;&#160;&#160;&#160;&#160;&#160;&#160;.oossssso-````/ossssss+`</text>

<text
    x="0"
    y="192"
    class="mono logo"
    xml:space="preserve"
>&#160;&#160;&#160;&#160;&#160;&#160;&#160;&#160;-osssssso.&#160;&#160;&#160;&#160;&#160;&#160;:ssssssso.</text>

<text
    x="0"
    y="208"
    class="mono logo"
    xml:space="preserve"
>&#160;&#160;&#160;&#160;&#160;&#160;&#160;:osssssss/&#160;&#160;&#160;&#160;&#160;&#160;&#160;&#160;osssso+++.</text>

<text
    x="0"
    y="224"
    class="mono logo"
    xml:space="preserve"
>&#160;&#160;&#160;&#160;&#160;&#160;/ossssssss/&#160;&#160;&#160;&#160;&#160;&#160;&#160;&#160;+ssssooo/-</text>

<text
    x="0"
    y="240"
    class="mono logo"
    xml:space="preserve"
>&#160;&#160;&#160;&#160;`/ossssso+/:-&#160;&#160;&#160;&#160;&#160;&#160;&#160;&#160;-:/+osssso+-</text>

<text
    x="0"
    y="256"
    class="mono logo"
    xml:space="preserve"
>&#160;&#160;&#160;`+sso+:-`&#160;&#160;&#160;&#160;&#160;&#160;&#160;&#160;&#160;&#160;&#160;&#160;&#160;&#160;&#160;&#160;&#160;`.-/+oso:</text>

<text
    x="0"
    y="272"
    class="mono logo"
    xml:space="preserve"
>&#160;&#160;`++:.&#160;&#160;&#160;&#160;&#160;&#160;&#160;&#160;&#160;&#160;&#160;&#160;&#160;&#160;&#160;&#160;&#160;&#160;&#160;&#160;&#160;&#160;&#160;&#160;&#160;&#160;&#160;`-/+/</text>

<text
    x="0"
    y="288"
    class="mono logo"
    xml:space="preserve"
>&#160;&#160;.`&#160;&#160;&#160;&#160;&#160;&#160;&#160;&#160;&#160;&#160;&#160;&#160;&#160;&#160;&#160;&#160;&#160;&#160;&#160;&#160;&#160;&#160;&#160;&#160;&#160;&#160;&#160;&#160;&#160;&#160;&#160;&#160;&#160;`/</text>
</g>
<text x="470" y="110" class="mono prompt">user</text>
<text x="580" y="110" class="mono text">: zhixe</text>

<text x="470" y="138" class="mono prompt">name</text>
<text x="580" y="138" class="mono text">: Amsyar Malek</text>

<text x="470" y="166" class="mono prompt">os</text>
<text x="580" y="166" class="mono text">: Arch Linux</text>

<text x="470" y="194" class="mono prompt">role</text>
<text x="580" y="194" class="mono text">: Software + Data Engineer</text>

<text x="470" y="222" class="mono prompt">shell</text>
<text x="580" y="222" class="mono text">: zsh</text>

<text x="470" y="250" class="mono prompt">location</text>
<text x="580" y="250" class="mono text">: Malaysia</text>

<text x="470" y="278" class="mono prompt">github</text>
<text x="580" y="278" class="mono text">: github.com/zhixe</text>

<text x="45" y="390" class="mono prompt">zhixe@arch ~ $</text>
<text x="210" y="390" class="mono command">github-status</text>

<text x="65" y="424" class="mono muted">Repositories</text>
<text x="250" y="424" class="mono metric">67</text>

<text x="65" y="452" class="mono muted">Contributions</text>
<text x="250" y="452" class="mono metric">682</text>

<text x="65" y="480" class="mono muted">Commits</text>
<text x="250" y="480" class="mono metric">630</text>

<text x="65" y="508" class="mono muted">Pull requests</text>
<text x="250" y="508" class="mono metric">29</text>

<text x="65" y="536" class="mono muted">Reviews</text>
<text x="250" y="536" class="mono metric">0</text>

<text x="430" y="424" class="mono muted">Issues</text>
<text x="620" y="424" class="mono metric">0</text>

<text x="430" y="452" class="mono muted">Followers</text>
<text x="620" y="452" class="mono metric">23</text>

<text x="430" y="480" class="mono muted">Following</text>
<text x="620" y="480" class="mono metric">10</text>

<text x="430" y="508" class="mono muted">Stars</text>
<text x="620" y="508" class="mono metric">1</text>

<text x="430" y="536" class="mono muted">Forks</text>
<text x="620" y="536" class="mono metric">0</text>

<text x="45" y="580" class="mono prompt">zhixe@arch ~ $</text>
<text x="210" y="580" class="mono command">languages --top</text>

<text x="65" y="626" class="mono text">Python</text>

<rect
    x="280"
    y="616"
    width="420"
    height="12"
    rx="6"
    fill="#21262d"
/>

<rect
    x="280"
    y="616"
    width="294.0"
    height="12"
    rx="6"
    fill="#3572A5"
/>

<text x="718" y="626" class="mono muted">70.0%</text>

<text x="65" y="660" class="mono text">JavaScript</text>

<rect
    x="280"
    y="650"
    width="420"
    height="12"
    rx="6"
    fill="#21262d"
/>

<rect
    x="280"
    y="650"
    width="49.1"
    height="12"
    rx="6"
    fill="#f1e05a"
/>

<text x="718" y="660" class="mono muted">11.7%</text>

<text x="65" y="694" class="mono text">TypeScript</text>

<rect
    x="280"
    y="684"
    width="420"
    height="12"
    rx="6"
    fill="#21262d"
/>

<rect
    x="280"
    y="684"
    width="34.9"
    height="12"
    rx="6"
    fill="#3178c6"
/>

<text x="718" y="694" class="mono muted">8.3%</text>

<text x="65" y="728" class="mono text">HTML</text>

<rect
    x="280"
    y="718"
    width="420"
    height="12"
    rx="6"
    fill="#21262d"
/>

<rect
    x="280"
    y="718"
    width="11.8"
    height="12"
    rx="6"
    fill="#e34c26"
/>

<text x="718" y="728" class="mono muted">2.8%</text>

<text x="65" y="762" class="mono text">Rust</text>

<rect
    x="280"
    y="752"
    width="420"
    height="12"
    rx="6"
    fill="#21262d"
/>

<rect
    x="280"
    y="752"
    width="9.7"
    height="12"
    rx="6"
    fill="#dea584"
/>

<text x="718" y="762" class="mono muted">2.3%</text>

<text x="65" y="796" class="mono text">Go</text>

<rect
    x="280"
    y="786"
    width="420"
    height="12"
    rx="6"
    fill="#21262d"
/>

<rect
    x="280"
    y="786"
    width="8.4"
    height="12"
    rx="6"
    fill="#00ADD8"
/>

<text x="718" y="796" class="mono muted">2.0%</text>

<text x="65" y="830" class="mono text">C</text>

<rect
    x="280"
    y="820"
    width="420"
    height="12"
    rx="6"
    fill="#21262d"
/>

<rect
    x="280"
    y="820"
    width="6.3"
    height="12"
    rx="6"
    fill="#555555"
/>

<text x="718" y="830" class="mono muted">1.5%</text>

<text x="65" y="864" class="mono text">CSS</text>

<rect
    x="280"
    y="854"
    width="420"
    height="12"
    rx="6"
    fill="#21262d"
/>

<rect
    x="280"
    y="854"
    width="5.5"
    height="12"
    rx="6"
    fill="#663399"
/>

<text x="718" y="864" class="mono muted">1.3%</text>

<text x="45" y="1005" class="mono prompt">zhixe@arch ~ $</text>

<rect
    x="210"
    y="991"
    width="10"
    height="18"
    fill="#1793d1"
>
    <animate
        attributeName="opacity"
        values="1;0;1"
        dur="1.1s"
        repeatCount="indefinite"
    />
</rect>
</svg>